G04*
G04 #@! TF.GenerationSoftware,Altium Limited,Altium Designer,19.0.4 (130)*
G04*
G04 Layer_Color=255*
%FSLAX25Y25*%
%MOIN*%
G70*
G01*
G75*
%ADD31C,0.07480*%
G04:AMPARAMS|DCode=32|XSize=78.74mil|YSize=47.24mil|CornerRadius=0mil|HoleSize=0mil|Usage=FLASHONLY|Rotation=270.000|XOffset=0mil|YOffset=0mil|HoleType=Round|Shape=RoundedRectangle|*
%AMROUNDEDRECTD32*
21,1,0.07874,0.04724,0,0,270.0*
21,1,0.07874,0.04724,0,0,270.0*
1,1,0.00000,-0.02362,-0.03937*
1,1,0.00000,-0.02362,0.03937*
1,1,0.00000,0.02362,0.03937*
1,1,0.00000,0.02362,-0.03937*
%
%ADD32ROUNDEDRECTD32*%
G04:AMPARAMS|DCode=33|XSize=78.74mil|YSize=47.24mil|CornerRadius=11.81mil|HoleSize=0mil|Usage=FLASHONLY|Rotation=270.000|XOffset=0mil|YOffset=0mil|HoleType=Round|Shape=RoundedRectangle|*
%AMROUNDEDRECTD33*
21,1,0.07874,0.02362,0,0,270.0*
21,1,0.05512,0.04724,0,0,270.0*
1,1,0.02362,-0.01181,-0.02756*
1,1,0.02362,-0.01181,0.02756*
1,1,0.02362,0.01181,0.02756*
1,1,0.02362,0.01181,-0.02756*
%
%ADD33ROUNDEDRECTD33*%
%ADD34R,0.07874X0.07874*%
%ADD35C,0.07874*%
%ADD36C,0.05709*%
%ADD37C,0.06299*%
D31*
X140157Y190551D02*
D03*
X130709D02*
D03*
X149606Y78740D02*
D03*
X139370D02*
D03*
X124016Y132283D02*
D03*
Y122441D02*
D03*
Y112441D02*
D03*
X28110Y72441D02*
D03*
X18110D02*
D03*
X8110D02*
D03*
D32*
X115748Y22220D02*
D03*
X144095Y8559D02*
D03*
X115748D02*
D03*
D33*
X144095Y22220D02*
D03*
D34*
X98425Y11496D02*
D03*
X8268Y83307D02*
D03*
Y152913D02*
D03*
D35*
X98425Y21496D02*
D03*
Y31496D02*
D03*
Y41496D02*
D03*
Y51496D02*
D03*
Y61496D02*
D03*
X8268Y103307D02*
D03*
Y93307D02*
D03*
Y132913D02*
D03*
Y142913D02*
D03*
X35827Y87402D02*
D03*
Y100787D02*
D03*
X118110Y45669D02*
D03*
Y36614D02*
D03*
Y62992D02*
D03*
Y72047D02*
D03*
Y99606D02*
D03*
Y90551D02*
D03*
X6299Y45866D02*
D03*
Y35945D02*
D03*
D36*
X102756Y100787D02*
D03*
X63386D02*
D03*
X102756Y73228D02*
D03*
X63386D02*
D03*
X102756Y87008D02*
D03*
X63386D02*
D03*
D37*
X132874Y137795D02*
D03*
X155118D02*
D03*
X154527Y165354D02*
D03*
X132283D02*
D03*
M02*
