G04*
G04 #@! TF.GenerationSoftware,Altium Limited,Altium Designer,19.0.4 (130)*
G04*
G04 Layer_Color=8388736*
%FSLAX25Y25*%
%MOIN*%
G70*
G01*
G75*
%ADD16R,0.01496X0.05039*%
%ADD17R,0.03858X0.08189*%
%ADD18R,0.05821X0.07821*%
%ADD19R,0.14921X0.07821*%
%ADD20C,0.07402*%
G04:AMPARAMS|DCode=21|XSize=77.95mil|YSize=46.46mil|CornerRadius=0mil|HoleSize=0mil|Usage=FLASHONLY|Rotation=270.000|XOffset=0mil|YOffset=0mil|HoleType=Round|Shape=RoundedRectangle|*
%AMROUNDEDRECTD21*
21,1,0.07795,0.04646,0,0,270.0*
21,1,0.07795,0.04646,0,0,270.0*
1,1,0.00000,-0.02323,-0.03898*
1,1,0.00000,-0.02323,0.03898*
1,1,0.00000,0.02323,0.03898*
1,1,0.00000,0.02323,-0.03898*
%
%ADD21ROUNDEDRECTD21*%
G04:AMPARAMS|DCode=22|XSize=77.95mil|YSize=46.46mil|CornerRadius=11.42mil|HoleSize=0mil|Usage=FLASHONLY|Rotation=270.000|XOffset=0mil|YOffset=0mil|HoleType=Round|Shape=RoundedRectangle|*
%AMROUNDEDRECTD22*
21,1,0.07795,0.02362,0,0,270.0*
21,1,0.05512,0.04646,0,0,270.0*
1,1,0.02284,-0.01181,-0.02756*
1,1,0.02284,-0.01181,0.02756*
1,1,0.02284,0.01181,0.02756*
1,1,0.02284,0.01181,-0.02756*
%
%ADD22ROUNDEDRECTD22*%
%ADD23R,0.07795X0.07795*%
%ADD24C,0.07795*%
%ADD25C,0.05630*%
%ADD26C,0.06221*%
%ADD27C,0.01496*%
%ADD28C,0.11732*%
D16*
X124803Y21000D02*
D03*
X127362D02*
D03*
X129921D02*
D03*
X132480D02*
D03*
X135039D02*
D03*
D17*
X52362Y187008D02*
D03*
X60236D02*
D03*
X68110D02*
D03*
X75984D02*
D03*
X83858D02*
D03*
X91732D02*
D03*
X99606D02*
D03*
X107480D02*
D03*
Y119685D02*
D03*
X99606D02*
D03*
X91732D02*
D03*
X83858D02*
D03*
X75984D02*
D03*
X68110D02*
D03*
X60236D02*
D03*
X52362D02*
D03*
D18*
X145924Y42118D02*
D03*
X136869D02*
D03*
X154980D02*
D03*
X145414Y115362D02*
D03*
X154469D02*
D03*
X136359D02*
D03*
D19*
X145858Y67472D02*
D03*
X145481Y90008D02*
D03*
D20*
X140157Y190551D02*
D03*
X130709D02*
D03*
X149606Y78740D02*
D03*
X139370D02*
D03*
X124016Y132283D02*
D03*
Y122441D02*
D03*
Y112441D02*
D03*
X28110Y72441D02*
D03*
X18110D02*
D03*
X8110D02*
D03*
D21*
X115748Y22220D02*
D03*
X144095Y8559D02*
D03*
X115748D02*
D03*
D22*
X144095Y22220D02*
D03*
D23*
X98425Y11496D02*
D03*
X8268Y83307D02*
D03*
Y152913D02*
D03*
D24*
X98425Y21496D02*
D03*
Y31496D02*
D03*
Y41496D02*
D03*
Y51496D02*
D03*
Y61496D02*
D03*
X8268Y103307D02*
D03*
Y93307D02*
D03*
Y132913D02*
D03*
Y142913D02*
D03*
X35827Y87402D02*
D03*
Y100787D02*
D03*
X118110Y45669D02*
D03*
Y36614D02*
D03*
Y62992D02*
D03*
Y72047D02*
D03*
Y99606D02*
D03*
Y90551D02*
D03*
X6299Y45866D02*
D03*
Y35945D02*
D03*
D25*
X102756Y100787D02*
D03*
X63386D02*
D03*
X102756Y73228D02*
D03*
X63386D02*
D03*
X102756Y87008D02*
D03*
X63386D02*
D03*
D26*
X132874Y137795D02*
D03*
X155118D02*
D03*
X154527Y165354D02*
D03*
X132283D02*
D03*
D27*
X134252Y118898D02*
D03*
X116535Y136614D02*
D03*
X99606Y170079D02*
D03*
X72047Y175591D02*
D03*
D28*
X7874Y188976D02*
D03*
X157480Y7874D02*
D03*
Y188976D02*
D03*
X7874Y7874D02*
D03*
M02*
